<?xml version="1.0" encoding="utf-8"?>
<svg version="1.1" xmlns="http://www.w3.org/2000/svg" viewBox="0 0 1000 600" role="img" aria-labelledby="title desc">
<title id="title">Daniel Sadiq</title><desc id="desc">Daniel Sadiq wordmark and orange symbol</desc>
<style>.orange{fill:#FCAF3B}</style>
<g><path d="M642.7 336.3v2.2h-3.1l.1 8H637l-.1-8h-3v-2.2h8.8z"/><path d="M646.2 336.3l2.8 6 2.7-6h2.9l.1 10.3h-2.4l-.1-6.5-2.3 5.5h-1.8l-2.4-5.4.1 6.5h-2.4l-.1-10.3h2.9z"/></g>
<path d="M464.7 272.1c0 12.7-9.6 22-23 22h-17.9V250h18.1c13.2 0 22.8 9.3 22.8 22.1zm-7.5 0c0-9-6.7-15.4-15.4-15.4h-10.5v30.7h10.8c8.5 0 15.1-6.3 15.1-15.3z"/><path d="M525.3 250l23.6 31.7V250h7.3v44.1h-7.3l-23.5-31.6v31.6H518V250h7.3z"/><path d="M575.3 250v44.1h-7.4V250h7.4z"/><path d="M618.4 250v6.7h-24.1v12h21.5v6.6h-21.5v12.2h24.8v6.7h-32.2V250h31.5z"/><path d="M635.6 250v37.3h19.1v6.7h-26.5V250h7.4z"/><path d="M441.8 312.3c-4.3 0-7.2 1.6-7.2 4.6 0 9.6 23.8 4.5 23.7 20.3 0 7.9-6.9 12.7-16.6 12.7-6.9 0-13.5-2.8-18-7l3.2-6.4c4.5 4.2 10.2 6.4 14.9 6.4 5.2 0 8.3-2 8.3-5.4 0-9.8-23.8-4.3-23.8-20 0-7.6 6.5-12.3 16.1-12.3 5.7 0 11.3 1.8 15.4 4.5l-3.1 6.5c-4.8-2.7-9.6-3.9-12.9-3.9z"/><path d="M559.2 327.7c0 12.7-9.6 22-23 22h-17.9v-44.1h18.1c13.2 0 22.8 9.3 22.8 22.1zm-7.5 0c0-9-6.7-15.4-15.4-15.4h-10.5V343h10.8c8.6 0 15.1-6.3 15.1-15.3z"/><path d="M575.2 305.6v44.1h-7.4v-44.1h7.4z"/><path d="M627.6 344.7l-4.5-4.4c6.3-9.2 5.1-21.9-3.4-29.7-9.3-8.6-23.8-8-32.3 1.3-8.6 9.3-8 23.8 1.3 32.3 8.2 7.5 20.4 8 29.1 1.6l4.7 4.6 5.1-5.7zm-34.4-5.4c-6.6-6.1-7-16.3-.9-22.9 6.1-6.6 16.3-7 22.9-.9 5.7 5.3 6.8 13.7 3 20.1l-7.3-7.2-5.2 5.6 7.2 7.1c-6.1 3.8-14.2 3.3-19.7-1.8z"/><path d="M505.8 279.7l-3.4-7.7-7.8-17.9-1.7-4h-7.6l-1.8 4-8.1 18.4-3.3 7.5-6.3 14.2h7.7l4.1-9.6c3.2 1.9 7.1 2.9 11.2 2.9 4.2 0 8.1-1 11.3-2.9l4.1 9.6h7.9l-6.3-14.5zm-17 0c-3.1 0-6-.8-8.3-2.2l.1-.2 8.3-19.6 8.4 19.7c-2.5 1.5-5.4 2.3-8.5 2.3z"/><path d="M512.3 349.6l-6.4-14.6-3.4-7.7-7.8-17.9-1.7-4h-7.6l-1.8 4-8.1 18.4-3.3 7.5-6.5 14.7h7.7l4.3-10c3.2 1.9 7.1 2.9 11.2 2.9 4.2 0 8.1-1 11.3-2.9l4.3 10h7.9l-.1-.4zm-23.4-14.3c-3.1 0-6-.8-8.3-2.2l.1-.2 8.3-19.6 8.4 19.7c-2.5 1.4-5.4 2.3-8.5 2.3z"/><path class="orange" d="M402.1 244.3h-57.2v56.8h17c-9.7 4.5-16.5 14.3-16.5 25.8 0 15.7 12.7 28.4 28.4 28.4s28.4-12.7 28.4-28.4c0-11.4-6.8-21.3-16.5-25.8h16.5v-56.8zm-13.8 82.6c0 8.1-6.5 14.6-14.6 14.6s-14.6-6.5-14.6-14.6 6.5-14.6 14.6-14.6 14.6 6.6 14.6 14.6zm.3-39.1h-30.3v-30h30.3v30z"/></svg>